<svg xmlns="http://www.w3.org/2000/svg" width="94" height="33" viewBox="0 0 94 33" fill="none"><g clip-path="url(#clip0_1_4472)"><path d="M14.7406 27.3506C14.0979 27.4757 13.4552 27.5382 12.854 27.5382C11.9418 27.5382 11.2369 27.2881 10.6978 26.746C10.1795 26.2249 9.91001 25.3702 9.91001 24.1819V10.9444H17.1248V5.71194H9.91001V0H3.64887L3.69034 5.67025L0 5.71194V10.9444H3.52448V24.2862C3.52448 26.475 3.89766 28.2262 4.66475 29.4978C5.43185 30.7903 6.46846 31.7075 7.75386 32.2495C8.97706 32.7498 10.3247 33 11.7966 33C12.7296 33 13.704 32.9166 14.637 32.729C15.6114 32.5414 16.3785 32.3121 16.959 32.0411L17.3529 31.8534V26.6627L16.4407 26.9545C15.9638 27.1004 15.4041 27.2464 14.7406 27.3506Z" fill="white"></path><path d="M36.074 5.58666L35.4313 5.46158C35.0581 5.39904 34.602 5.3365 34.0629 5.29481C33.5032 5.25312 33.0056 5.21143 32.5495 5.21143C29.3774 5.21143 26.8688 6.33714 25.3969 7.65047V5.6909H19.3638V32.5203H25.7493V18.4281C25.7493 17.2607 25.9359 16.2392 26.2883 15.3428C26.6408 14.4673 27.1384 13.7168 27.7396 13.1122C28.3616 12.5077 29.0665 12.0282 29.8336 11.6947C30.6006 11.3611 31.4299 11.2152 32.2592 11.2152C32.6324 11.2152 33.0471 11.2361 33.4824 11.2986C33.9178 11.3611 34.3117 11.4237 34.602 11.5071L35.3898 11.7155L36.074 5.56582V5.58666Z" fill="white"></path><path d="M47.5806 5.23242C45.8391 5.23242 44.1391 5.46173 42.5427 5.89951C40.9463 6.33729 39.5365 6.87929 38.2926 7.52554L37.7121 7.83823L39.8682 12.758L40.5317 12.4245C41.5475 11.9033 42.6671 11.4655 43.8073 11.0903C44.9269 10.7359 46.1086 10.5483 47.3526 10.5483C48.7002 10.5483 49.7368 10.861 50.4417 11.5072C51.1258 12.1118 51.4783 13.2792 51.4783 14.9469V15.6765L47.8501 15.8016C43.7244 15.9267 40.5939 16.7188 38.5414 18.1364C36.3852 19.6165 35.3071 21.8054 35.3071 24.6197C35.3071 26.475 35.6803 28.0385 36.4474 29.2893C37.2145 30.5609 38.2718 31.499 39.5987 32.1244C40.8841 32.7081 42.3561 33.0208 43.9525 33.0208C45.4245 33.0208 46.6891 32.8749 47.7257 32.5622C48.7831 32.2495 49.7575 31.77 50.5868 31.1238C51.0222 30.7902 51.4368 30.415 51.8515 29.9772V32.5413H57.7809V14.6133C57.7809 11.4238 56.9101 9.04733 55.2101 7.50469C53.5308 6.00374 50.96 5.23242 47.6221 5.23242H47.5806ZM51.4161 20.3461V21.8262C51.4161 23.8275 50.877 25.2659 49.7368 26.2457C48.5758 27.2463 47.1245 27.7258 45.3208 27.7258C44.2427 27.7258 43.3927 27.4756 42.7085 26.9753C42.0866 26.5167 41.7963 25.7662 41.7963 24.6614C41.7963 23.3689 42.2524 22.4099 43.1854 21.722C44.1805 20.9715 46.0464 20.5337 48.7624 20.4295L51.4161 20.3461Z" fill="white"></path><path d="M90.7037 5.60791C92.5281 5.60791 94.0001 7.10886 94.0001 8.9642C94.0001 10.8195 92.5281 12.3413 90.7037 12.3413C88.8793 12.3413 87.4487 10.8612 87.4487 8.9642C87.4487 7.06716 88.9 5.60791 90.7037 5.60791ZM90.7037 11.841C92.2586 11.841 93.4611 10.5902 93.4611 8.9642C93.4611 7.33817 92.2586 6.10823 90.7037 6.10823C89.1488 6.10823 87.9878 7.35902 87.9878 8.9642C87.9878 10.5694 89.1695 11.841 90.7037 11.841ZM89.6256 7.1714H90.911C91.5537 7.1714 91.9891 7.58833 91.9891 8.25541C91.9891 8.79742 91.6574 9.13097 91.3257 9.21435C91.3257 9.21435 91.3671 9.27689 91.4501 9.44367L92.1342 10.7987H91.5537L90.8281 9.33943H90.1439V10.7987H89.6256V7.19224V7.1714ZM90.8074 8.90166C91.2013 8.90166 91.4501 8.6515 91.4501 8.23457C91.4501 7.81764 91.2013 7.58833 90.8074 7.58833H90.1439V8.90166H90.8074Z" fill="white"></path><path d="M85.9558 5.58691H79.1142L73.8896 12.362L77.5178 17.5111L85.9558 5.58691Z" fill="white"></path><path d="M73.9932 25.5994L79.0104 32.5413H85.9557L77.6213 20.4712L73.9932 25.5994Z" fill="white"></path><path d="M66.9652 5.58691H59.6675L69.1628 19.0746L59.6675 32.5414H66.9652L76.4606 19.0746L66.9652 5.58691Z" fill="url(#paint0_linear_1_4472)"></path></g><defs><linearGradient id="paint0_linear_1_4472" x1="59.6675" y1="19.0746" x2="76.4606" y2="19.0746" gradientUnits="userSpaceOnUse"><stop offset="0.15" stop-color="#2E4999"></stop><stop offset="1" stop-color="#29BADB"></stop></linearGradient><clipPath id="clip0_1_4472"><rect width="94" height="33" fill="white"></rect></clipPath></defs></svg>